<svg width="97" height="75" viewBox="0 0 97 75" fill="none" xmlns="http://www.w3.org/2000/svg">
<path d="M58.2554 72.2671V72.2609V56.2479C58.2554 55.007 57.7625 53.8169 56.885 52.9394C56.0076 52.062 54.8175 51.569 53.5766 51.569H42.8611C41.6202 51.569 40.4301 52.062 39.5526 52.9394C38.6752 53.8169 38.1822 55.007 38.1822 56.2479V72.2726C38.1822 72.4521 38.1112 72.6242 37.9846 72.7514C37.8582 72.8784 37.6868 72.9503 37.5077 72.9515C37.5073 72.9515 37.507 72.9515 37.5067 72.9515L18.7546 73C18.7541 73 18.7536 73 18.7531 73C18.5736 72.9996 18.4015 72.9281 18.2746 72.8012C18.1473 72.6739 18.0757 72.5012 18.0757 72.3211V45.8249L48.2019 21.0125C48.2088 21.0077 48.217 21.005 48.2255 21.005C48.234 21.005 48.2423 21.0077 48.2492 21.0126C48.2499 21.013 48.2506 21.0136 48.2512 21.0141L78.3686 45.8068V72.3211C78.3686 72.5012 78.2971 72.6739 78.1698 72.8012C78.0429 72.928 77.871 72.9995 77.6916 73C77.691 73 77.6904 73 77.6898 73L58.9398 72.9481H58.9343C58.845 72.9481 58.7565 72.9305 58.674 72.8962C58.5915 72.862 58.5166 72.8118 58.4535 72.7485C58.3904 72.6852 58.3405 72.6102 58.3065 72.5275C58.2725 72.445 58.2551 72.3565 58.2554 72.2671ZM94.433 38.2807L94.4434 38.2891C94.4443 38.2899 94.4451 38.2908 94.4457 38.2918C94.4463 38.293 94.4466 38.2941 94.4467 38.2953C94.4468 38.2956 94.4468 38.2959 94.4468 38.2961C94.4468 38.2971 94.4467 38.298 94.4464 38.2988C94.4461 38.2999 94.4455 38.301 94.4448 38.3019C94.4448 38.302 94.4447 38.302 94.4447 38.302L90.1787 43.4881C90.1787 43.4882 90.1786 43.4882 90.1785 43.4883C90.1778 43.4891 90.1769 43.4898 90.176 43.4903C90.1755 43.4906 90.1751 43.4908 90.1746 43.4909C90.1739 43.4912 90.1733 43.4913 90.1726 43.4914C90.1721 43.4914 90.1716 43.4914 90.1711 43.4914C90.1704 43.4913 90.1697 43.4912 90.169 43.491C90.1679 43.4907 90.1668 43.4901 90.1658 43.4893L90.1623 43.4863L50.7779 11.0486L50.7697 11.0419L50.7615 11.0352C50.0431 10.4562 49.1482 10.1404 48.2255 10.1404C47.3028 10.1404 46.4079 10.4562 45.6896 11.0352L45.6813 11.0419L45.6732 11.0486L6.29042 43.4864L6.28832 43.4881C6.2874 43.4889 6.28633 43.4894 6.28516 43.4898C6.28475 43.4899 6.28432 43.49 6.2839 43.4901C6.28315 43.4902 6.28239 43.4902 6.28164 43.4902C6.28043 43.49 6.27927 43.4897 6.27821 43.4891L5.33815 45.2544L6.27819 43.4891C6.27713 43.4885 6.27619 43.4878 6.27544 43.4869L6.2753 43.4867L2.00585 38.2964L2.0021 38.2918C2.00133 38.2909 2.00076 38.2898 2.0004 38.2887C2.00005 38.2875 1.99993 38.2863 2.00004 38.2851C2.00015 38.2839 2.0005 38.2828 2.00106 38.2817C2.00159 38.2807 2.0023 38.2798 2.00315 38.2791C2.0032 38.279 2.00326 38.279 2.00332 38.2789L44.3814 3.37769C44.3816 3.37752 44.3818 3.37735 44.382 3.37718C45.4624 2.48834 46.8181 2.00237 48.2172 2.00237C49.6165 2.00237 50.9724 2.48852 52.0529 3.37769L52.0531 3.37781L67.043 15.7107L70.3137 18.4016V14.1662V2.00915C70.3137 2.00672 70.3147 2.00439 70.3164 2.00269C70.3181 2.00097 70.3204 2 70.3229 2H79.6989C79.7013 2 79.7037 2.00097 79.7054 2.00267L81.1153 0.592766L79.7054 2.00269C79.7065 2.00384 79.7074 2.00528 79.7078 2.00686C79.708 2.0076 79.7081 2.00837 79.7081 2.00915V25.1998V26.1431L80.4359 26.7431L94.433 38.2807Z" stroke="#DAAB31" stroke-width="4"/>
</svg>
