<svg width="33" height="33" viewBox="0 0 33 33" fill="none" xmlns="http://www.w3.org/2000/svg">
<path d="M29.8417 0.455566H2.7982C1.50491 0.455566 0.455383 1.48041 0.455383 2.7424V29.9027C0.455383 31.1665 1.50491 32.1927 2.7982 32.1927H29.8417C31.1359 32.1927 32.1925 31.1665 32.1925 29.9027V2.7424C32.1925 1.48041 31.1359 0.455566 29.8417 0.455566ZM9.86808 27.5H5.15864V12.3548H9.86808V27.5ZM7.51336 10.2839C7.1549 10.2839 6.79995 10.2133 6.4688 10.0761C6.13764 9.93883 5.83678 9.73769 5.58339 9.48414C5.33 9.23059 5.12906 8.92959 4.99204 8.59835C4.85502 8.26711 4.78462 7.91212 4.78485 7.55366C4.78485 6.83007 5.0723 6.13612 5.58395 5.62446C6.0956 5.11281 6.78955 4.82537 7.51314 4.82537C8.23673 4.82537 8.93068 5.11281 9.44233 5.62446C9.95398 6.13612 10.2414 6.83007 10.2414 7.55366C10.2414 8.27739 9.95408 8.97151 9.44253 9.48347C8.93098 9.99543 8.23709 10.2833 7.51336 10.2839V10.2839ZM27.498 27.5H22.7961V20.1352C22.7961 18.3782 22.7617 16.1191 20.3492 16.1191C17.8993 16.1191 17.526 18.0326 17.526 20.0078V27.5004H12.8205V12.3548H17.3364V14.423H17.4008C18.0294 13.2328 19.5651 11.977 21.8554 11.977C26.6186 11.977 27.4985 15.1128 27.4985 19.1924V27.5H27.498Z" fill="white"/>
</svg>
