<svg width="40" height="33" viewBox="0 0 40 33" fill="none" xmlns="http://www.w3.org/2000/svg">
<path d="M39.5424 4.21273C38.0801 4.86053 36.529 5.28553 34.9408 5.47358C36.6137 4.47261 37.8656 2.89753 38.4631 1.04187C36.8907 1.97535 35.17 2.63268 33.3756 2.98537C32.626 2.18576 31.7201 1.54864 30.7141 1.11348C29.7081 0.678316 28.6234 0.454388 27.5274 0.455571C23.1028 0.455571 19.515 4.04232 19.515 8.46794C19.515 9.09532 19.586 9.70748 19.7229 10.2943C13.0637 9.96006 7.16019 6.76992 3.20827 1.92182C2.49572 3.14465 2.1213 4.53503 2.12342 5.95032C2.12237 7.26949 2.44719 8.5685 3.06902 9.73191C3.69086 10.8953 4.59045 11.8871 5.68785 12.6192C4.41571 12.5788 3.17159 12.2352 2.05901 11.617C2.05799 11.6505 2.05799 11.6834 2.05799 11.7179C2.05799 15.5988 4.81957 18.8372 8.48443 19.5741C7.30435 19.8936 6.06707 19.9404 4.86623 19.711C5.88565 22.8936 8.84452 25.2109 12.3506 25.2758C9.51243 27.5031 6.00764 28.7112 2.39983 28.7058C1.75318 28.7058 1.11566 28.6683 0.488281 28.5937C4.15179 30.9476 8.41552 32.197 12.7701 32.1926C27.5076 32.1926 35.5666 19.9844 35.5666 9.3976C35.5666 9.05069 35.5585 8.70429 35.5433 8.35992C37.1128 7.22683 38.4671 5.82235 39.5424 4.21273V4.21273Z" fill="#FFFDFD"/>
</svg>
