<svg width="32" height="33" viewBox="0 0 32 33" fill="none" xmlns="http://www.w3.org/2000/svg">
<path d="M16.8564 18.5606L15.3654 17.4956C14.9394 17.0696 14.3004 16.6436 14.3004 15.7916C14.3004 14.9396 14.9394 14.3006 15.5784 13.6616C17.2824 12.3836 19.1994 10.8926 19.1994 7.69759C19.1994 4.50258 17.2824 2.79857 16.2174 1.94657H18.7734L21.3294 0.455566H12.5964C10.4664 0.455566 7.4844 0.881567 5.1414 2.79857C3.43739 4.28958 2.58539 6.41958 2.58539 8.33659C2.58539 11.5316 5.1414 14.9396 9.61441 14.9396H10.8924C10.6794 15.3656 10.4664 15.7916 10.4664 16.4306C10.4664 17.7086 11.1054 18.5606 11.7444 19.1996C9.82741 19.4126 6.4194 19.6256 3.65039 21.1166C1.09439 22.6076 0.455383 24.7376 0.455383 26.2286C0.455383 29.4236 3.43739 32.1927 9.40141 32.1927C16.6434 32.1927 20.4774 28.1456 20.4774 24.3116C20.4774 21.5426 18.7734 20.2646 16.8564 18.5606V18.5606ZM11.5314 13.8746C7.9104 13.8746 6.2064 9.18859 6.2064 6.41958C6.2064 5.35458 6.4194 4.28958 7.0584 3.22457C7.6974 2.37257 8.97541 1.73357 10.0404 1.73357C13.4484 1.73357 15.3654 6.41958 15.3654 9.40159C15.3654 10.2536 15.3654 11.5316 14.3004 12.3836C13.6614 13.2356 12.3834 13.8746 11.5314 13.8746ZM11.5314 30.7017C7.0584 30.7017 4.07639 28.5716 4.07639 25.5896C4.07639 22.6076 6.8454 21.5426 7.69741 21.3296C9.40141 20.6906 11.7444 20.6906 12.1704 20.6906H13.2354C16.4304 23.0336 17.7084 24.0986 17.7084 26.2286C17.7084 28.7846 15.5784 30.7017 11.5314 30.7017V30.7017ZM25.5895 15.3656H21.3294V13.2356H25.5895V9.18859L27.7195 8.97559V13.2356H31.9795V15.3656H27.7195V19.6256H25.5895V15.3656Z" fill="white"/>
</svg>
