<svg width="43" height="43" viewBox="0 0 43 43" fill="none" xmlns="http://www.w3.org/2000/svg">
<rect width="43" height="43" fill="#353434"/>
<path d="M39.815 0H3.17424C1.42199 0 0 1.38854 0 3.09839V39.8974C0 41.6097 1.42199 43 3.17424 43H39.815C41.5685 43 43 41.6097 43 39.8974V3.09839C43 1.38854 41.5685 0 39.815 0ZM12.7531 36.642H6.37236V16.122H12.7531V36.642ZM9.56272 13.3163C9.07705 13.3163 8.59614 13.2206 8.14746 13.0346C7.69879 12.8487 7.29115 12.5762 6.94784 12.2327C6.60453 11.8891 6.33227 11.4813 6.14663 11.0325C5.96099 10.5837 5.8656 10.1027 5.86592 9.61707C5.86592 8.63669 6.25537 7.69647 6.9486 7.00324C7.64183 6.31001 8.58205 5.92056 9.56242 5.92056C10.5428 5.92056 11.483 6.31001 12.1762 7.00324C12.8695 7.69647 13.2589 8.63669 13.2589 9.61707C13.2589 10.5976 12.8696 11.5381 12.1765 12.2317C11.4834 12.9254 10.5433 13.3155 9.56272 13.3163ZM36.6396 36.642H30.269V26.6636C30.269 24.2831 30.2224 21.2223 26.9538 21.2223C23.6345 21.2223 23.1286 23.8148 23.1286 26.491V36.6426H16.7533V16.122H22.8718V18.9242H22.959C23.8107 17.3117 25.8914 15.6102 28.9945 15.6102C35.4481 15.6102 36.6402 19.8588 36.6402 25.3861V36.642H36.6396Z" fill="#797979"/>
</svg>
