<svg width="43" height="43" viewBox="0 0 43 43" fill="none" xmlns="http://www.w3.org/2000/svg">
<rect width="43" height="43" fill="#353434"/>
<path d="M35.8333 0H7.16667C3.10556 0 0 3.10556 0 7.16667V35.8333C0 39.8944 3.10556 43 7.16667 43H35.8333C39.8944 43 43 39.8944 43 35.8333V7.16667C43 3.10556 39.8944 0 35.8333 0ZM21.5 14.3333C25.5611 14.3333 28.6667 17.4389 28.6667 21.5C28.6667 25.5611 25.5611 28.6667 21.5 28.6667C17.4389 28.6667 14.3333 25.5611 14.3333 21.5C14.3333 17.4389 17.4389 14.3333 21.5 14.3333ZM30.5778 9.55556C30.5778 7.88333 32.0111 6.68889 33.4444 6.68889C34.8778 6.68889 36.3111 8.12222 36.3111 9.55556C36.3111 10.9889 35.1167 12.4222 33.4444 12.4222C31.7722 12.4222 30.5778 11.2278 30.5778 9.55556ZM35.8333 38.2222H7.16667C5.73333 38.2222 4.77778 37.2667 4.77778 35.8333V21.5H9.55556C9.55556 28.1889 14.8111 33.4444 21.5 33.4444C28.1889 33.4444 33.4444 28.1889 33.4444 21.5H38.2222V35.8333C38.2222 37.2667 37.2667 38.2222 35.8333 38.2222Z" fill="#797979"/>
</svg>
