<svg width="74" height="74" viewBox="0 0 74 74" fill="none" xmlns="http://www.w3.org/2000/svg">
<path d="M16.7937 11.7876L16.8 11.7082V11.6286C16.8 9.28626 17.416 6.75381 18.5629 4.87369C19.6905 3.02531 21.1823 2 23.0222 2C25.5495 2 27.8944 3.78805 29.7272 6.89626C31.534 9.96024 32.5333 13.8384 32.5333 16.9143C32.5333 19.2566 31.9173 21.789 30.7704 23.6692C29.6428 25.5175 28.1511 26.5429 26.3111 26.5429C23.4542 26.5429 20.9863 24.6844 19.195 21.6466C17.4069 18.6144 16.5539 14.7939 16.7937 11.7876ZM56.6519 12.1571C56.6519 14.9466 55.6644 18.689 53.8547 21.6977C52.0201 24.7478 49.674 26.5429 47.1407 26.5429C45.3008 26.5429 43.809 25.5175 42.6815 23.6692C41.5345 21.789 40.9185 19.2566 40.9185 16.9143C40.9185 14.1248 41.906 10.3824 43.7157 7.37371C45.5503 4.32361 47.8964 2.52857 50.4296 2.52857C52.2696 2.52857 53.7614 3.55388 54.8889 5.40226C56.0358 7.28238 56.6519 9.81483 56.6519 12.1571ZM56.8148 39.6429C56.8148 36.6222 57.92 32.9036 59.8444 29.9703C61.7874 27.0088 64.2686 25.2571 66.8741 25.2571C68.2552 25.2571 69.4789 25.9828 70.4364 27.3677C71.4102 28.7763 72 30.7462 72 32.7714C72 35.7921 70.8949 39.5107 68.9704 42.444C67.0274 45.4054 64.5463 47.1571 61.9407 47.1571C60.2332 47.1571 59.0461 46.3826 58.2024 45.0905C57.3079 43.7205 56.8148 41.7548 56.8148 39.6429ZM7.12593 25.2571C9.43248 25.2571 11.9216 26.9757 13.9663 29.9947C15.9716 32.9557 17.1852 36.6681 17.1852 39.6429C17.1852 41.7548 16.6921 43.7205 15.7976 45.0905C14.9539 46.3826 13.7668 47.1571 12.0593 47.1571C9.75271 47.1571 7.26355 45.4386 5.21893 42.4196C3.2136 39.4586 2 35.7462 2 32.7714C2 30.6594 2.49308 28.6938 3.38759 27.3238C4.23131 26.0316 5.41841 25.2571 7.12593 25.2571ZM12.963 67.1286C12.963 62.0239 16.2996 55.3484 21.2256 49.828C23.6526 47.1081 26.3801 44.7691 29.1087 43.1227C31.857 41.4644 34.4768 40.5857 36.7259 40.5857C38.9751 40.5857 41.5948 41.4644 44.3431 43.1227C47.0717 44.7691 49.7992 47.1081 52.2263 49.828C57.1523 55.3484 60.4889 62.0239 60.4889 67.1286C60.4889 68.2938 60.2441 69.0913 59.9189 69.6527C59.5953 70.2113 59.1268 70.6492 58.5018 70.9969C57.1797 71.7324 55.2754 72 53.1704 72C50.5914 72 48.1906 71.0989 45.4783 70.026C45.374 69.9847 45.2691 69.9431 45.1635 69.9012C42.6562 68.9071 39.7916 67.7714 36.7259 67.7714C33.4056 67.7714 30.4147 68.8989 27.7517 69.9027C27.6529 69.94 27.5546 69.977 27.4567 70.0139C24.62 71.0814 22.0623 72 19.1852 72C17.1752 72 15.6008 71.6263 14.578 70.909C13.6807 70.2797 12.963 69.2185 12.963 67.1286Z" stroke="#DAAB31" stroke-width="4"/>
</svg>
