<svg width="54" height="75" viewBox="0 0 54 75" fill="none" xmlns="http://www.w3.org/2000/svg">
<path d="M51.6666 26.9999V27.0003C51.6678 32.6867 49.7042 38.1989 46.1083 42.604C42.5123 47.009 37.5048 50.0364 31.9333 51.1737L30.3333 51.5003V53.1333V72.9999H23.6666V53.1333V51.5003L22.0666 51.1737C16.4951 50.0364 11.4876 47.009 7.89167 42.604C4.29571 38.1989 2.33215 32.6867 2.33331 27.0003V26.9999C2.33331 20.4579 4.93212 14.1838 9.55801 9.55795C14.1839 4.93205 20.458 2.33325 27 2.33325C33.542 2.33325 39.816 4.93205 44.4419 9.55795C49.0678 14.1838 51.6666 20.4579 51.6666 26.9999ZM27 8.99992C22.2261 8.99992 17.6477 10.8963 14.2721 14.272C10.8964 17.6476 8.99998 22.226 8.99998 26.9999C8.99998 31.7738 10.8964 36.3522 14.2721 39.7278C17.6477 43.1035 22.2261 44.9999 27 44.9999C31.7739 44.9999 36.3522 43.1035 39.7279 39.7278C43.1036 36.3522 45 31.7738 45 26.9999C45 22.226 43.1036 17.6476 39.7279 14.272C36.3522 10.8963 31.7739 8.99992 27 8.99992Z" stroke="#DAAB31" stroke-width="4"/>
</svg>
