<svg width="20" height="18" viewBox="0 0 20 18" fill="none" xmlns="http://www.w3.org/2000/svg">
<path d="M18.3375 10.5932L19.9789 3.28075C20.0974 2.75277 19.7011 2.25 19.1663 2.25H5.52806L5.20979 0.674648C5.13049 0.281988 4.78924 0 4.39337 0H0.833333C0.37309 0 0 0.377754 0 0.84375V1.40625C0 1.87225 0.37309 2.25 0.833333 2.25H3.25983L5.69899 14.3239C5.11545 14.6637 4.72222 15.3008 4.72222 16.0312C4.72222 17.1186 5.59278 18 6.66667 18C7.74056 18 8.61111 17.1186 8.61111 16.0312C8.61111 15.4802 8.38726 14.9824 8.02694 14.625H15.3064C14.9461 14.9824 14.7222 15.4802 14.7222 16.0312C14.7222 17.1186 15.5928 18 16.6667 18C17.7406 18 18.6111 17.1186 18.6111 16.0312C18.6111 15.2518 18.1636 14.5782 17.5146 14.2592L17.7062 13.4057C17.8247 12.8778 17.4283 12.375 16.8936 12.375H7.57351L7.34625 11.25H17.5249C17.914 11.25 18.2513 10.9774 18.3375 10.5932Z" fill="black"/>
</svg>
