<svg width="33" height="33" viewBox="0 0 33 33" fill="none" xmlns="http://www.w3.org/2000/svg">
<path d="M26.903 0.455566H5.7449C2.74751 0.455566 0.455383 2.74769 0.455383 5.74508V26.9031C0.455383 29.9005 2.74751 32.1927 5.7449 32.1927H26.903C29.9004 32.1927 32.1925 29.9005 32.1925 26.9031V5.74508C32.1925 2.74769 29.9004 0.455566 26.903 0.455566ZM16.3239 11.0346C19.3213 11.0346 21.6134 13.3267 21.6134 16.3241C21.6134 19.3215 19.3213 21.6136 16.3239 21.6136C13.3265 21.6136 11.0344 19.3215 11.0344 16.3241C11.0344 13.3267 13.3265 11.0346 16.3239 11.0346ZM23.024 7.50825C23.024 6.27403 24.0819 5.39245 25.1398 5.39245C26.1977 5.39245 27.2556 6.45035 27.2556 7.50825C27.2556 8.56616 26.374 9.62406 25.1398 9.62406C23.9056 9.62406 23.024 8.74247 23.024 7.50825V7.50825ZM26.903 28.6663H5.7449C4.687 28.6663 3.98173 27.961 3.98173 26.9031V16.3241H7.50807C7.50807 21.261 11.387 25.14 16.3239 25.14C21.2608 25.14 25.1398 21.261 25.1398 16.3241H28.6661V26.9031C28.6661 27.961 27.9609 28.6663 26.903 28.6663Z" fill="white"/>
</svg>
